<?xml version="1.0" standalone="no"?>
<!DOCTYPE svg PUBLIC "-//W3C//DTD SVG 20010904//EN"
 "http://www.w3.org/TR/2001/REC-SVG-20010904/DTD/svg10.dtd">
<svg version="1.0" xmlns="http://www.w3.org/2000/svg"
 width="70.000000pt" height="70.000000pt" viewBox="0 0 70.000000 70.000000"
 preserveAspectRatio="xMidYMid meet">
<metadata>
Created by potrace 1.11, written by Peter Selinger 2001-2013
</metadata>
<g transform="translate(0.000000,70.000000) scale(0.100000,-0.100000)"
fill="#000000" stroke="none">
<path d="M125 625 c-36 -18 -55 -45 -60 -86 -5 -39 7 -37 42 7 27 33 34 36 95
41 65 5 68 5 99 -26 29 -29 31 -36 27 -85 -8 -96 -89 -193 -143 -172 -15 5
-16 15 -11 64 11 95 17 126 32 156 8 16 13 30 12 32 -4 3 -31 7 -44 5 -25 -2
-50 -98 -58 -219 -3 -44 -1 -55 17 -67 59 -41 161 -1 218 85 15 23 24 25 101
28 77 4 87 2 112 -20 19 -16 25 -28 20 -41 -9 -24 -61 -50 -88 -43 -11 3 -27
1 -35 -3 -22 -14 -6 -38 36 -51 44 -15 53 -25 53 -61 0 -46 -54 -76 -117 -64
l-36 6 6 85 c3 46 13 98 21 115 9 18 13 35 10 40 -11 19 -44 8 -58 -20 -18
-33 -36 -136 -36 -202 0 -53 3 -55 101 -65 67 -7 116 12 142 55 28 48 16 109
-27 129 -21 11 -21 11 2 11 30 1 82 53 82 81 0 56 -110 107 -213 99 l-47 -4 1
51 c2 61 -25 113 -68 134 -44 20 -153 24 -188 5z"/>
</g>
</svg>
